<?xml version="1.0" encoding="utf-8"?>
<!-- Generator: Adobe Illustrator 27.6.1, SVG Export Plug-In . SVG Version: 6.00 Build 0)  -->
<svg version="1.1" id="Layer_1" xmlns="http://www.w3.org/2000/svg" xmlns:xlink="http://www.w3.org/1999/xlink" x="0px" y="0px"
	 viewBox="0 0 518 288" style="enable-background:new 0 0 518 288;" xml:space="preserve">
<style type="text/css">
	.st0{fill:#F3F3F3;}
	.st1{fill:#EE0000;}
	.st2{fill:#E0E0E0;}
	.st3{fill:#FFFFFF;}
	.st4{fill:#79C4C6;}
	.st5{fill:#316DC1;}
	.st6{fill:#4D4D4D;}
	.st7{fill:#ED0000;}
	.st8{fill:#DFDFDF;}
	.st9{fill:none;stroke:#FF0000;stroke-width:1.25;stroke-linecap:round;stroke-linejoin:round;stroke-miterlimit:10;}
	.st10{fill:none;}
	.st11{fill:#689B7A;}
	.st12{fill:#ED1C24;}
	.st13{fill:#383838;}
	.st14{clip-path:url(#SVGID_00000044894827260756950420000010695543161567504268_);}
	.st15{clip-path:url(#SVGID_00000070806420235301413150000004289020844860140720_);}
	.st16{fill:#151515;}
	.st17{fill:#F2F2F2;}
	.st18{fill:none;stroke:#1E67CD;stroke-width:0.75;stroke-miterlimit:10;}
	.st19{fill:#1E67CD;}
	.st20{fill:#707070;}
	.st21{fill:none;stroke:#FFFFFF;stroke-width:1.25;stroke-linecap:round;stroke-linejoin:round;stroke-miterlimit:10;}
	.st22{fill:none;stroke:#FFFFFF;stroke-width:2;stroke-linecap:round;stroke-linejoin:round;stroke-miterlimit:10;}
	.st23{fill:none;stroke:#FFFFFF;stroke-width:3;stroke-linecap:round;stroke-linejoin:round;stroke-miterlimit:10;}
	.st24{fill:#151515;stroke:#FFFFFF;stroke-width:2;stroke-linecap:round;stroke-linejoin:round;stroke-miterlimit:10;}
	.st25{fill:none;stroke:#000000;stroke-width:2;stroke-linecap:round;stroke-linejoin:round;stroke-miterlimit:10;}
	.st26{stroke:#000000;stroke-width:2;stroke-linecap:round;stroke-linejoin:round;stroke-miterlimit:10;}
	.st27{fill:none;stroke:#000000;stroke-width:3;stroke-linecap:round;stroke-linejoin:round;stroke-miterlimit:10;}
	.st28{fill:none;stroke:#000000;stroke-width:2;stroke-miterlimit:10;}
	.st29{fill:none;stroke:#000000;stroke-width:2;stroke-linecap:round;stroke-miterlimit:10;}
	.st30{fill:#FFFFFF;stroke:#000000;stroke-width:2;stroke-linecap:round;stroke-linejoin:round;stroke-miterlimit:10;}
	.st31{stroke:#000000;stroke-width:3;stroke-linecap:round;stroke-linejoin:round;stroke-miterlimit:10;}
	.st32{fill:none;stroke:#FFFFFF;stroke-width:4;stroke-linecap:round;stroke-linejoin:round;stroke-miterlimit:10;}
	.st33{fill:none;stroke:#000000;stroke-width:3;stroke-linecap:round;stroke-linejoin:round;}
	.st34{fill:none;stroke:#000000;stroke-width:3;stroke-linecap:round;stroke-linejoin:round;stroke-dasharray:0,5.25;}
	.st35{fill:#F2F2F2;stroke:#000000;stroke-width:2;stroke-linecap:round;stroke-linejoin:round;stroke-miterlimit:10;}
	.st36{fill:#1F63B5;}
	.st37{fill:none;stroke:#A7C0E4;stroke-width:5.000000e-02;stroke-miterlimit:10;}
	.st38{opacity:0.25;}
	.st39{fill:#0066CC;}
	.st40{fill:none;stroke:#000000;stroke-width:0.5;stroke-miterlimit:10;}
	.st41{clip-path:url(#SVGID_00000146498616554544026280000016746793430556293524_);}
	.st42{fill:none;stroke:#1E67CD;stroke-width:0.5;stroke-linecap:round;stroke-linejoin:round;}
	.st43{fill:none;stroke:#1E67CD;stroke-width:0.5;stroke-linecap:round;stroke-linejoin:round;stroke-dasharray:0,1.002;}
	.st44{fill:none;stroke:#1E67CD;stroke-width:0.5;stroke-linecap:round;stroke-miterlimit:10;}
	.st45{fill:none;stroke:#1E67CD;stroke-width:0.5;stroke-linecap:round;stroke-miterlimit:10;stroke-dasharray:0,1.002;}
	.st46{fill:none;stroke:#1E67CD;stroke-miterlimit:10;}
	.st47{fill:#FFFFFF;stroke:#FFFFFF;stroke-linecap:round;stroke-linejoin:round;stroke-miterlimit:10;}
	.st48{fill:#8F0000;}
	.st49{clip-path:url(#SVGID_00000083782657158370724000000005108937054017048219_);}
	.st50{clip-path:url(#SVGID_00000037687747932857502520000016644967320971743397_);}
	.st51{fill:#FFFFFF;stroke:#FFFFFF;stroke-width:5.000000e-02;stroke-miterlimit:10;}
	.st52{fill:none;stroke:#FFFFFF;stroke-width:0.2;stroke-linecap:round;stroke-linejoin:round;stroke-miterlimit:10;}
	.st53{opacity:0.5;fill:#1E67CD;}
	.st54{fill:#151515;stroke:#1E67CD;stroke-miterlimit:10;}
	.st55{fill:#151515;stroke:#316DC1;stroke-width:0.25;stroke-miterlimit:10;}
	.st56{fill:none;stroke:#FFFFFF;stroke-width:0.45;stroke-linecap:round;stroke-linejoin:round;stroke-miterlimit:10;}
	.st57{fill:#F7823C;}
	.st58{fill:#27579A;}
	.st59{fill:#C65E2B;}
	.st60{fill:#4E745C;}
	.st61{fill:#F2F2F2;stroke:#D2D2D2;stroke-miterlimit:10;}
	.st62{fill:#241A49;}
	.st63{fill:#E3EAF5;}
</style>
<rect y="0" class="st62" width="518" height="288"/>
<g id="Logo_A_-_Standard_00000115505703665675339960000015394950420493746820_">
	<path class="st1" d="M165.4,149.7c6.5,0,16-1.3,16-9.1c0-0.6,0-1.2-0.2-1.8l-3.9-16.9c-0.9-3.7-1.7-5.4-8.2-8.7
		c-5.1-2.6-16.1-6.9-19.4-6.9c-3,0-3.9,3.9-7.6,3.9c-3.5,0-6.1-2.9-9.4-2.9c-3.1,0-5.2,2.1-6.8,6.5c0,0-4.4,12.4-5,14.2
		c-0.1,0.3-0.1,0.7-0.1,1C121,133.9,140,149.7,165.4,149.7 M182.5,143.8c0.9,4.3,0.9,4.7,0.9,5.3c0,7.3-8.2,11.4-19,11.4
		c-24.4,0-45.9-14.3-45.9-23.8c0-1.3,0.3-2.6,0.8-3.8c-8.8,0.4-20.2,2-20.2,12.1c0,16.5,39,36.7,69.9,36.7
		c23.7,0,29.6-10.7,29.6-19.2C198.6,155.8,192.8,148.3,182.5,143.8"/>
	<path d="M182.5,143.8c0.9,4.3,0.9,4.7,0.9,5.3c0,7.3-8.2,11.4-19,11.4c-24.4,0-45.9-14.3-45.9-23.8c0-1.3,0.3-2.6,0.8-3.8l1.9-4.7
		c-0.1,0.3-0.1,0.7-0.1,1c0,4.8,19,20.6,44.4,20.6c6.5,0,16-1.3,16-9.1c0-0.6,0-1.2-0.2-1.8L182.5,143.8z"/>
	<path class="st3" d="M401.9,154.6c0,6.2,3.7,9.2,10.6,9.2c2.1-0.1,4.2-0.3,6.2-0.9v-7.2c-1.3,0.4-2.7,0.6-4,0.6
		c-2.8,0-3.8-0.9-3.8-3.5v-11h8.1v-7.4h-8.1V125l-8.9,1.9v7.5H396v7.4h5.9V154.6z M374.2,154.8c0-1.9,1.9-2.9,4.8-2.9
		c1.8,0,3.6,0.2,5.3,0.7v3.7c-1.7,0.9-3.6,1.4-5.6,1.4C375.9,157.7,374.2,156.6,374.2,154.8 M376.9,164c3.1,0,5.7-0.7,8-2.3v1.8h8.8
		v-18.6c0-7.1-4.8-11-12.8-11c-4.5,0-8.9,1-13.6,3.2l3.2,6.5c3.4-1.4,6.3-2.3,8.8-2.3c3.7,0,5.6,1.4,5.6,4.3v1.4
		c-2.2-0.6-4.4-0.8-6.6-0.8c-7.5,0-12,3.1-12,8.7C366.3,160.1,370.4,164,376.9,164 M328.6,163.5h9.5v-15.1h15.8v15.1h9.5V125h-9.4
		v14.8h-15.8V125h-9.5L328.6,163.5z M292.6,148.9c0-4.2,3.3-7.4,7.6-7.4c2.3,0,4.5,0.8,6.1,2.3V154c-1.7,1.6-3.9,2.4-6.1,2.3
		C295.9,156.3,292.6,153.1,292.6,148.9 M306.5,163.5h8.8v-40.4l-8.9,1.9v10.9c-2.3-1.3-4.8-1.9-7.4-1.9c-8.5,0-15.1,6.5-15.1,14.9
		c-0.1,8.2,6.4,14.9,14.6,15c0.1,0,0.2,0,0.3,0c2.8,0,5.5-0.9,7.8-2.5L306.5,163.5z M266.1,141.1c2.8,0,5.2,1.8,6.1,4.6h-12.1
		C261,142.8,263.2,141.1,266.1,141.1 M251.1,149c0,8.5,6.9,15.1,15.8,15.1c4.9,0,8.5-1.3,12.2-4.4l-5.9-5.2
		c-1.4,1.4-3.4,2.2-5.8,2.2c-3.1,0.1-6-1.7-7.2-4.6H281v-2.2c0-9.2-6.2-15.9-14.7-15.9c-8.2-0.1-15,6.5-15.2,14.7
		C251.1,148.7,251.1,148.8,251.1,149 M235.8,133.1c3.1,0,4.9,2,4.9,4.3s-1.8,4.3-4.9,4.3h-9.4v-8.7H235.8z M217,163.5h9.5v-14h7.2
		l7.3,14h10.6l-8.5-15.4c4.4-1.8,7.3-6.1,7.3-10.8c0-6.9-5.4-12.3-13.6-12.3H217V163.5z"/>
</g>
</svg>
